<svg width="460" height="260" viewBox="0 0 460 260" xmlns="http://www.w3.org/2000/svg"><mask id="satori_om-id"><rect x="0" y="0" width="444" height="255" fill="#fff"/></mask><clipPath id="satori_cp-id-0"><rect x="12" y="12" width="420" height="192"/></clipPath><mask id="satori_om-id-0"><rect x="12" y="12" width="420" height="192" fill="#fff"/></mask><image x="12" y="12" width="420" height="192" href="data:image/svg+xml;utf8,%3Csvg  xmlns=%22http://www.w3.org/2000/svg%22 width=%22419.2%22 height=%22192%22 viewBox=%220 0 262 120%22%3E%3Cpath d=%22M 112 10 L 60 10 A 50 50 0 0 0 60 110 L 112 110 L 90 88 L 60 88 A 28 28 0 0 1 60 32 L 90 32 Z%22 fill=%22%230E1116%22%3E%3C/path%3E%3Cpath d=%22M 169 10 L 252 10 L 230 32 L 191 32 L 191 88 L 252 88 L 230 110 L 169 110 L 169 103.3 L 120 50.6 L 120 110 L 98 88 L 98 32 L 116 14 L 169 71 Z%22 fill=%22%230E1116%22%3E%3C/path%3E%3Cpath d=%22M 169 49 L 244 49 L 222 71 L 169 71 Z%22 fill=%22%232F6DB5%22%3E%3C/path%3E%3C/svg%3E" preserveAspectRatio="none" clip-path="url(#satori_cp-id-0)" mask="url(#satori_om-id-0)"/><mask id="satori_om-id-0-0"><rect x="12" y="12" width="0" height="192" fill="#fff"/></mask><mask id="satori_om-id-0-1"><rect x="12" y="12" width="0" height="192" fill="#fff"/></mask><mask id="satori_om-id-0-2"><rect x="12" y="12" width="0" height="192" fill="#fff"/></mask><mask id="satori_om-id-1"><rect x="12" y="218" width="354" height="25" fill="#fff"/></mask><mask id="satori_om-id-1-0"><rect x="28" y="218" width="338" height="25" fill="#fff"/></mask><g  ><path fill="#5B6470" d="M33.8 237.2L33.8 237.2Q32.5 237.2 31.3 236.4Q30.1 235.6 29.4 234.1Q28.7 232.6 28.7 230.3L28.7 230.3Q28.7 228.1 29.4 226.6Q30.1 225.1 31.3 224.3Q32.5 223.5 33.8 223.5L33.8 223.5Q35.0 223.5 36.0 224.0Q36.9 224.5 37.6 225.4Q38.3 226.4 38.7 227.7L38.7 227.7L36.9 228.2Q36.6 226.7 35.8 226.0Q34.9 225.2 33.9 225.2L33.9 225.2Q33.0 225.2 32.2 225.8Q31.5 226.4 31.1 227.5Q30.6 228.7 30.6 230.3L30.6 230.3Q30.6 232.0 31.1 233.2Q31.5 234.3 32.2 234.9Q33.0 235.5 33.9 235.5L33.9 235.5Q34.9 235.5 35.8 234.7Q36.6 234.0 36.9 232.5L36.9 232.5L38.7 233.0Q38.3 234.3 37.6 235.3Q36.9 236.2 36.0 236.7Q35.0 237.2 33.8 237.2ZM46.1 237L44.2 237L44.2 223.7L48.5 223.7Q49.8 223.7 50.8 224.2Q51.8 224.7 52.3 225.6Q52.9 226.5 52.9 227.6L52.9 227.6Q52.9 228.9 52.2 229.9Q51.4 230.8 50.2 231.2L50.2 231.2L53.2 237L51.1 237L48.3 231.5L46.1 231.5L46.1 237ZM46.1 225.3L46.1 230.0L48.3 230.0Q49.5 230.0 50.2 229.3Q51.0 228.7 51.0 227.7L51.0 227.7Q51.0 226.6 50.2 226.0Q49.5 225.3 48.3 225.3L48.3 225.3L46.1 225.3ZM67.2 237L58.6 237L58.6 223.7L67.2 223.7L67.2 225.3L60.5 225.3L60.5 229.5L64.9 229.5L64.9 231.1L60.5 231.1L60.5 235.4L67.2 235.4L67.2 237ZM73.4 237L71.5 237L75.9 223.7L78.2 223.7L82.5 237L80.5 237L79.5 233.6L74.5 233.6L73.4 237ZM77.0 225.7L75.0 232.1L79.0 232.1L77.0 225.7ZM92.4 237L90.5 237L90.5 225.3L86.3 225.3L86.3 223.7L96.7 223.7L96.7 225.3L92.4 225.3L92.4 237ZM110.3 237L101.5 237L101.5 235.4L105.0 235.4L105.0 225.3L101.5 225.3L101.5 223.7L110.3 223.7L110.3 225.3L106.9 225.3L106.9 235.4L110.3 235.4L110.3 237ZM117.6 237L116.0 237L116.0 223.7L118.0 223.7L123.1 233.7L123.1 223.7L124.7 223.7L124.7 237L122.9 237L117.6 226.7L117.6 237ZM135.0 237.2L135.0 237.2Q133.6 237.2 132.4 236.4Q131.2 235.6 130.5 234.1Q129.8 232.6 129.8 230.3L129.8 230.3Q129.8 228.1 130.5 226.6Q131.2 225.1 132.4 224.3Q133.5 223.5 134.9 223.5L134.9 223.5Q136.6 223.5 137.9 224.5Q139.1 225.6 139.7 227.5L139.7 227.5L138.0 228.0Q137.6 226.6 136.8 225.9Q136.0 225.2 134.9 225.2L134.9 225.2Q134.0 225.2 133.3 225.8Q132.6 226.4 132.1 227.5Q131.7 228.7 131.7 230.3L131.7 230.3Q131.7 232.0 132.1 233.2Q132.6 234.3 133.3 234.9Q134.1 235.5 135.0 235.5L135.0 235.5Q135.9 235.5 136.5 235.0Q137.2 234.5 137.6 233.6Q138.0 232.7 138.1 231.5L138.1 231.5L135.2 231.5L135.2 229.9L139.9 229.9L139.9 230.6Q139.9 232.6 139.3 234.1Q138.7 235.6 137.6 236.4Q136.5 237.2 135.0 237.2Z M157.9 237L156.2 237L156.2 223.7L158.2 223.7L163.4 233.7L163.3 223.7L165.0 223.7L165.0 237L163.2 237L157.9 226.7L157.9 237ZM179.7 237L171.1 237L171.1 223.7L179.6 223.7L179.6 225.3L173.0 225.3L173.0 229.5L177.3 229.5L177.3 231.1L173.0 231.1L173.0 235.4L179.7 235.4L179.7 237ZM186.2 237L184.1 237L188.5 230.1L184.5 223.7L186.6 223.7L189.5 228.5L192.5 223.7L194.5 223.7L190.5 230.1L194.9 237L192.7 237L189.5 231.7L186.2 237ZM204.9 237L203.0 237L203.0 225.3L198.7 225.3L198.7 223.7L209.1 223.7L209.1 225.3L204.9 225.3L204.9 237Z M234.4 237L225.8 237L225.8 223.7L234.4 223.7L234.4 225.3L227.7 225.3L227.7 229.5L232.1 229.5L232.1 231.1L227.7 231.1L227.7 235.4L234.4 235.4L234.4 237ZM245.4 237L243.0 237L238.7 223.7L240.7 223.7L244.2 235.1L247.8 223.7L249.7 223.7L245.4 237ZM263.3 237L254.7 237L254.7 223.7L263.2 223.7L263.2 225.3L256.6 225.3L256.6 229.5L260.9 229.5L260.9 231.1L256.6 231.1L256.6 235.4L263.3 235.4L263.3 237ZM271.0 237L269.1 237L269.1 223.7L273.5 223.7Q274.8 223.7 275.8 224.2Q276.7 224.7 277.3 225.6Q277.8 226.5 277.8 227.6L277.8 227.6Q277.8 228.9 277.1 229.9Q276.4 230.8 275.2 231.2L275.2 231.2L278.1 237L276.1 237L273.3 231.5L271.0 231.5L271.0 237ZM271.0 225.3L271.0 230.0L273.3 230.0Q274.5 230.0 275.2 229.3Q275.9 228.7 275.9 227.7L275.9 227.7Q275.9 226.6 275.2 226.0Q274.5 225.3 273.3 225.3L273.3 225.3L271.0 225.3ZM288.5 237L286.6 237L286.6 231.5L282.1 223.7L284.2 223.7L287.6 229.8L291.0 223.7L292.9 223.7L288.5 231.6L288.5 237ZM302.9 237L301.0 237L301.0 225.3L296.8 225.3L296.8 223.7L307.2 223.7L307.2 225.3L302.9 225.3L302.9 237ZM313.9 237L312.0 237L312.0 223.7L313.9 223.7L313.9 229.5L319.0 229.5L319.0 223.7L320.9 223.7L320.9 237L319.0 237L319.0 231.1L313.9 231.1L313.9 237ZM335.2 237L326.5 237L326.5 235.4L329.9 235.4L329.9 225.3L326.5 225.3L326.5 223.7L335.2 223.7L335.2 225.3L331.8 225.3L331.8 235.4L335.2 235.4L335.2 237ZM342.6 237L340.9 237L340.9 223.7L342.9 223.7L348.1 233.7L348.0 223.7L349.7 223.7L349.7 237L347.9 237L342.5 226.7L342.6 237ZM359.9 237.2L359.9 237.2Q358.5 237.2 357.3 236.4Q356.2 235.6 355.5 234.1Q354.7 232.6 354.7 230.3L354.7 230.3Q354.7 228.1 355.5 226.6Q356.2 225.1 357.3 224.3Q358.5 223.5 359.9 223.5L359.9 223.5Q361.6 223.5 362.8 224.5Q364.1 225.6 364.6 227.5L364.6 227.5L362.9 228.0Q362.6 226.6 361.7 225.9Q360.9 225.2 359.9 225.2L359.9 225.2Q359.0 225.2 358.3 225.8Q357.5 226.4 357.1 227.5Q356.7 228.7 356.7 230.3L356.7 230.3Q356.7 232.0 357.1 233.2Q357.5 234.3 358.3 234.9Q359.0 235.5 360.0 235.5L360.0 235.5Q360.8 235.5 361.5 235.0Q362.2 234.5 362.6 233.6Q363.0 232.7 363.0 231.5L363.0 231.5L360.2 231.5L360.2 229.9L364.9 229.9L364.9 230.6Q364.9 232.6 364.2 234.1Q363.6 235.6 362.5 236.4Q361.4 237.2 359.9 237.2Z "/></g></svg>