<svg xmlns="http://www.w3.org/2000/svg" viewBox="0 0 768 768">
<g transform="translate(0.000000,768.000000) scale(0.100000,-0.100000)"
fill="#0e1116" stroke="none">
<path d="M3585 5719 c-769 -102 -1415 -705 -1575 -1469 -232 -1114 657 -2209
1794 -2210 725 0 1420 456 1680 1104 60 148 56 202 -17 246 -88 54 -159 12
-207 -119 -166 -464 -617 -835 -1147 -946 -830 -172 -1663 398 -1850 1265 -28
131 -26 479 4 612 212 942 1143 1483 2038 1184 407 -136 779 -480 916 -845 39
-105 63 -125 134 -112 142 27 157 105 57 305 -246 495 -722 855 -1278 967
-124 25 -425 35 -549 18z"/>
<path d="M5245 4429 c-5 -7 -29 -9 -74 -4 -210 21 -432 -108 -531 -308 -201
-404 224 -864 654 -709 75 27 80 33 72 74 -15 74 -46 93 -119 73 -378 -102
-662 330 -392 597 87 86 151 112 288 116 118 4 118 4 141 36 25 33 49 96 41
104 -3 3 -5 2 -5 -2 0 -4 -15 2 -34 14 -24 14 -37 17 -41 9z"/>
</g>
<g transform="translate(0.000000,768.000000) scale(0.100000,-0.100000)"
fill="#2f6db5" stroke="none">
<path d="M5292 4319 c-12 -21 -26 -39 -30 -40 -4 0 -54 -1 -112 -2 -435 -8
-561 -527 -173 -710 81 -38 202 -44 283 -13 45 17 45 17 77 -21 38 -45 55 -40
139 44 197 195 172 523 -52 706 -98 80 -105 82 -132 36z m134 -215 c62 -41 70
-147 14 -196 -80 -73 -213 -1 -213 115 0 86 117 134 199 81z"/>
</g>
</svg>
